<svg width="30" height="22" viewBox="0 0 30 22" fill="none" xmlns="http://www.w3.org/2000/svg">
<rect width="30" height="22" rx="11" fill="#EDF2F7"/>
<path d="M12.3253 6.27273V15H10.7443V7.81108H10.6932L8.65199 9.11506V7.66619L10.821 6.27273H12.3253ZM14.5412 15V13.858L17.571 10.8878C17.8608 10.5952 18.1023 10.3352 18.2955 10.108C18.4886 9.88068 18.6335 9.66051 18.7301 9.44744C18.8267 9.23437 18.875 9.0071 18.875 8.76562C18.875 8.49006 18.8125 8.25426 18.6875 8.05824C18.5625 7.85938 18.3906 7.70597 18.1719 7.59801C17.9531 7.49006 17.7045 7.43608 17.4261 7.43608C17.1392 7.43608 16.8878 7.49574 16.6719 7.61506C16.456 7.73153 16.2884 7.89773 16.169 8.11364C16.0526 8.32955 15.9943 8.58665 15.9943 8.88494H14.4901C14.4901 8.33097 14.6165 7.84943 14.8693 7.44034C15.1222 7.03125 15.4702 6.71449 15.9134 6.49006C16.3594 6.26562 16.8707 6.15341 17.4474 6.15341C18.0327 6.15341 18.5469 6.26278 18.9901 6.48153C19.4332 6.70028 19.777 7 20.0213 7.38068C20.2685 7.76136 20.392 8.19602 20.392 8.68466C20.392 9.01136 20.3295 9.33239 20.2045 9.64773C20.0795 9.96307 19.8594 10.3125 19.544 10.696C19.2315 11.0795 18.7926 11.544 18.2273 12.0895L16.723 13.6193V13.679H20.5241V15H14.5412Z" fill="black"/>
</svg>
